<svg width="120" height="93" viewBox="0 0 120 93" fill="none" xmlns="http://www.w3.org/2000/svg">
<path d="M104.241 56.7113L103.459 54.9984H117.412L112.848 47.0928L117.412 39.1871H102.676L103.459 37.4742H118.456L119.499 35.6295H104.241V35.4977L100.981 32.8625L102.024 28.6462L98.3731 26.538L98.7643 22.3216L94.8521 20.8722L94.5913 16.5241L90.4182 15.6018L89.5054 11.3854L85.2019 11.2536L83.6371 7.30079L79.464 7.82784L77.3775 4.13852L73.3349 5.32437L70.5964 2.03034L66.6841 3.74323L63.5544 0.844482L60.0334 3.21619L56.5124 0.844482L53.3826 3.74323L49.4704 2.03034L46.8623 5.32437L42.4284 4.27028L40.3419 7.9596L36.1689 7.56432L34.7344 11.6489L30.431 11.7807L29.5181 15.997L25.3451 16.9194L25.0842 21.2675L21.172 22.8486L21.6937 27.065L18.0423 29.1732L19.2159 33.2578L16.4774 35.4977H0.69812L1.74138 37.3424H16.4774L17.2598 39.0553H2.78464L7.34889 46.961L2.78464 54.8667H17.1294L16.347 56.5796H1.87179L0.828535 58.4242H17.3902L19.3463 60.0054L18.3031 64.2217L21.9545 66.3299L21.5633 70.5463L25.4755 71.9957L25.7363 76.3438L29.9093 77.2661L30.8222 81.4825L35.1256 81.746L36.6905 85.6989L40.8635 85.1718L42.95 88.8611L46.9927 87.6753L49.7312 90.9693L53.6434 89.2564L56.7732 92.1552L60.4246 89.9152L63.9456 92.2869L67.0754 89.3882L70.9876 91.1011L73.5957 87.807L77.6383 88.8611L79.7248 85.1718L83.8979 85.5671L85.3324 81.6143L89.6358 81.3507L90.5486 77.1344L94.7217 76.212L94.9825 71.8639L98.8947 70.2828L98.3731 66.0664L102.024 63.9582L100.851 59.8736L102.155 58.8195H119.238L118.195 56.9749H104.241V56.7113ZM97.5906 52.0997C97.3298 54.3396 96.6778 56.5796 96.0257 58.556C90.4182 75.9485 73.0741 87.1482 54.5563 84.3812C39.9507 82.2731 28.4749 71.8639 24.041 58.556C22.2153 53.022 21.6937 47.0928 22.4761 40.9C22.7369 39.0553 23.1282 37.2106 23.6498 35.4977C28.8661 17.5782 46.6014 5.71966 65.5105 8.48665C80.6377 10.7266 92.2439 21.6628 96.417 35.4977C97.9818 40.7682 98.5035 46.3022 97.5906 52.0997Z" fill="url(#paint0_linear)"/>
<path d="M65.1193 11.6489C48.0359 9.14541 32.1263 19.5546 27.0404 35.4977C26.3883 37.3424 25.9971 39.3188 25.7363 41.2952C24.8235 47.2245 25.6059 53.1537 27.4316 58.4242C31.735 70.1509 42.0372 79.2425 55.0779 81.2189C71.77 83.7224 87.2885 73.8403 92.7656 58.4242C93.548 56.1842 94.2001 53.9443 94.4609 51.4408C95.2433 45.9068 94.7217 40.5046 93.1568 35.4977C89.2446 23.2439 78.6816 13.7571 65.1193 11.6489ZM64.7281 19.8181H72.1613V20.6087H64.7281V19.8181ZM59.251 18.8958L60.1638 16.1288L61.0767 18.8958H63.9456L61.5983 20.6087L62.5111 23.3756L60.1638 21.6627L57.8165 23.3756L58.7293 20.6087L56.382 18.8958H59.251ZM40.2115 35.6295H48.0359V38.3964H42.9501V43.4034H46.7319V46.1704H42.9501V54.0761H40.2115V35.6295ZM46.7319 69.8874L44.3845 68.1745L42.0372 69.8874L42.9501 67.1204L40.6027 65.4075H43.4717L44.3845 62.6405L45.2974 65.4075H48.1663L45.819 67.1204L46.7319 69.8874ZM48.0359 19.8181H55.4691V20.6087H48.0359V19.8181ZM54.5563 47.0927C54.4259 47.0927 54.4259 47.0927 54.2955 47.0927H52.7306V54.0761H49.992V35.6295H54.2955C55.8604 35.6295 56.9036 36.0247 57.6861 36.9471C58.3381 37.7376 58.5989 38.7917 58.5989 40.1093V42.7446C58.5989 44.0622 58.0773 45.1163 57.1644 46.0386L59.251 54.0761H56.2516L54.5563 47.0927ZM62.3807 69.8874L60.0334 68.1745L57.6861 69.8874L58.5989 67.1204L56.2516 65.4075H59.1205L60.0334 62.6405L60.9462 65.4075H63.8152L61.4679 67.1204L62.3807 69.8874ZM69.4227 38.3964H64.3368V43.4034H68.1186V46.1704H64.3368V51.1773H69.4227V53.9443H61.5983V35.6295H69.4227V38.3964ZM71.3788 35.6295H79.2032V38.3964H74.1174V43.4034H77.8992V46.1704H74.1174V51.1773H79.2032V53.9443H71.3788V35.6295ZM78.16 69.8874L75.8127 68.1745L73.4653 69.8874L74.3782 67.1204L72.0308 65.4075H74.8998L75.8127 62.6405L76.7255 65.4075H79.5945L77.2471 67.1204L78.16 69.8874Z" fill="url(#paint1_linear)"/>
<path d="M54.4259 38.3965H52.7306V44.3258H54.4259C54.8171 44.3258 55.2083 44.194 55.5995 43.7987C55.8603 43.5352 56.1212 43.1399 56.1212 42.6128V39.8459C55.9907 38.9235 55.4691 38.3965 54.4259 38.3965Z" fill="url(#paint2_linear)"/>
<defs>
<linearGradient id="paint0_linear" x1="60.0986" y1="0.844482" x2="60.0986" y2="92.2869" gradientUnits="userSpaceOnUse">
<stop stop-color="#C5AC7B"/>
<stop offset="0.341667" stop-color="#EFCE8E"/>
<stop offset="1" stop-color="#DFB05B"/>
</linearGradient>
<linearGradient id="paint1_linear" x1="60.0871" y1="11.2778" x2="60.0871" y2="81.6058" gradientUnits="userSpaceOnUse">
<stop stop-color="#C5AC7B"/>
<stop offset="0.341667" stop-color="#EFCE8E"/>
<stop offset="1" stop-color="#DFB05B"/>
</linearGradient>
<linearGradient id="paint2_linear" x1="54.4259" y1="38.3965" x2="54.4259" y2="44.3258" gradientUnits="userSpaceOnUse">
<stop stop-color="#C5AC7B"/>
<stop offset="0.341667" stop-color="#EFCE8E"/>
<stop offset="1" stop-color="#DFB05B"/>
</linearGradient>
</defs>
</svg>
