<svg width="26" height="27" viewBox="0 0 26 27" fill="none" xmlns="http://www.w3.org/2000/svg">
<g clip-path="url(#clip0)">
<path d="M25.3299 8.37973C25.2705 7.03257 25.0527 6.1064 24.7406 5.30387C24.4187 4.452 23.9234 3.68932 23.2745 3.05531C22.6405 2.41142 21.8727 1.9111 21.0307 1.59419C20.2236 1.28211 19.3022 1.06426 17.9551 1.00486C16.5979 0.940435 16.167 0.925537 12.7247 0.925537C9.28239 0.925537 8.85152 0.940435 7.49933 0.999831C6.15216 1.05923 5.226 1.27727 4.42366 1.58916C3.5716 1.9111 2.80892 2.40639 2.1749 3.05531C1.53102 3.68932 1.03089 4.45703 0.713784 5.29903C0.401709 6.1064 0.183857 7.02754 0.12446 8.3747C0.060033 9.73193 0.0451355 10.1628 0.0451355 13.6051C0.0451355 17.0474 0.060033 17.4783 0.11943 18.8305C0.178826 20.1776 0.396872 21.1038 0.708947 21.9063C1.03089 22.7582 1.53102 23.5209 2.1749 24.1549C2.80892 24.7988 3.57663 25.2991 4.41863 25.616C5.226 25.9281 6.14713 26.1459 7.49449 26.2053C8.84649 26.2649 9.27755 26.2796 12.7199 26.2796C16.1622 26.2796 16.593 26.2649 17.9452 26.2053C19.2924 26.1459 20.2185 25.9281 21.0209 25.616C22.7248 24.9572 24.072 23.6101 24.7308 21.9063C25.0426 21.099 25.2607 20.1776 25.3201 18.8305C25.3795 17.4783 25.3944 17.0474 25.3944 13.6051C25.3944 10.1628 25.3893 9.73193 25.3299 8.37973ZM23.0468 18.7314C22.9922 19.9696 22.7842 20.6383 22.6109 21.0841C22.1848 22.1886 21.3082 23.0652 20.2036 23.4913C19.7579 23.6646 19.0844 23.8726 17.851 23.927C16.5137 23.9866 16.1126 24.0013 12.7297 24.0013C9.34682 24.0013 8.94071 23.9866 7.60825 23.927C6.37001 23.8726 5.70137 23.6646 5.2556 23.4913C4.70594 23.2881 4.20561 22.9662 3.79951 22.5452C3.37851 22.134 3.05657 21.6388 2.85342 21.0891C2.68007 20.6433 2.47208 19.9696 2.41771 18.7364C2.35812 17.3991 2.34342 16.9979 2.34342 13.615C2.34342 10.2321 2.35812 9.82596 2.41771 8.49369C2.47208 7.25545 2.68007 6.5868 2.85342 6.14104C3.05657 5.59118 3.37851 5.09105 3.80454 4.68475C4.21548 4.26375 4.71078 3.94181 5.26063 3.73885C5.7064 3.5655 6.38007 3.35751 7.61328 3.30295C8.95058 3.24356 9.35185 3.22866 12.7346 3.22866C16.1225 3.22866 16.5236 3.24356 17.856 3.30295C19.0943 3.35751 19.7629 3.5655 20.2087 3.73885C20.7583 3.94181 21.2587 4.26375 21.6648 4.68475C22.0858 5.09589 22.4077 5.59118 22.6109 6.14104C22.7842 6.5868 22.9922 7.26029 23.0468 8.49369C23.1061 9.83099 23.121 10.2321 23.121 13.615C23.121 16.9979 23.1061 17.3941 23.0468 18.7314Z" fill="white"/>
<path d="M12.7241 7.0918C9.12838 7.0918 6.21097 10.009 6.21097 13.6049C6.21097 17.2009 9.12838 20.1181 12.7241 20.1181C16.32 20.1181 19.2372 17.2009 19.2372 13.6049C19.2372 10.009 16.32 7.0918 12.7241 7.0918ZM12.7241 17.8298C10.3914 17.8298 8.4992 15.9378 8.4992 13.6049C8.4992 11.272 10.3914 9.38002 12.7241 9.38002C15.057 9.38002 16.949 11.272 16.949 13.6049C16.949 15.9378 15.057 17.8298 12.7241 17.8298Z" fill="white"/>
<path d="M21.0154 6.83448C21.0154 7.67416 20.3346 8.355 19.4947 8.355C18.6551 8.355 17.9742 7.67416 17.9742 6.83448C17.9742 5.99461 18.6551 5.31396 19.4947 5.31396C20.3346 5.31396 21.0154 5.99461 21.0154 6.83448Z" fill="white"/>
</g>
<defs>
<clipPath id="clip0">
<rect width="25.3542" height="25.3542" fill="white" transform="translate(0 0.925537)"/>
</clipPath>
</defs>
</svg>
