<svg width="32" height="32" viewBox="0 0 32 32" fill="none" xmlns="http://www.w3.org/2000/svg">
<path d="M29.6119 8.29055C29.2748 7.03726 28.2867 6.0493 27.0336 5.71183C24.7443 5.08545 15.587 5.08545 15.587 5.08545C15.587 5.08545 6.43003 5.08545 4.14075 5.68808C2.91174 6.0252 1.8995 7.03744 1.56238 8.29055C0.95993 10.5797 0.95993 15.327 0.95993 15.327C0.95993 15.327 0.95993 20.0982 1.56238 22.3634C1.89986 23.6165 2.88763 24.6044 4.14093 24.9419C6.45414 25.5685 15.5873 25.5685 15.5873 25.5685C15.5873 25.5685 24.7443 25.5685 27.0336 24.9658C28.2869 24.6285 29.2748 23.6406 29.6123 22.3875C30.2146 20.0982 30.2146 15.3511 30.2146 15.3511C30.2146 15.3511 30.2387 10.5797 29.6119 8.29055ZM12.6715 19.7127V10.9412L20.2862 15.327L12.6715 19.7127Z" fill="white"/>
</svg>
